<svg width="353" height="303" viewBox="0 0 353 303" fill="none" xmlns="http://www.w3.org/2000/svg">
<path fill-rule="evenodd" clip-rule="evenodd" d="M353 148.77L264.739 6.64331e-06H99.2375L8.38683e-06 148.685L88.2814 303H264.767L353 148.77ZM172.656 297.589H258.528L224.479 238.071H137.542L172.656 297.589ZM166.368 297.589H91.425L57.3756 238.071H131.255L166.368 297.589ZM128.063 232.661H54.2802L7.84935 151.5H80.1807L128.063 232.661ZM80.2094 146.089H8.24297L60.6067 67.6339L128.21 67.6339L80.2094 146.089ZM134.558 67.6339L86.5578 146.089L174.981 146.089L221.282 68.0458L221.035 67.6339H134.558ZM131.52 62.2232L64.218 62.2232L102.137 5.41072H166.279L131.52 62.2232ZM172.627 5.41072L137.868 62.2232H224.102L224.421 62.7549L258.442 5.41072H172.627ZM86.4683 151.5L134.35 232.661H221.383L174.952 151.5L86.4683 151.5ZM225.664 229.237L179.658 148.819L224.45 73.3196L270.759 150.412L225.664 229.237ZM273.84 145.025L227.589 68.0286L263.195 8.01206L308.519 84.4073L273.84 145.025ZM311.695 89.761L277.036 150.345L312.287 209.03L346.733 148.819L311.695 89.761ZM309.206 214.416L273.954 155.731L228.783 234.69L263.195 294.842L309.206 214.416Z" fill="url(#paint0_linear_121_61)" fill-opacity="0.5"/>
<defs>
<linearGradient id="paint0_linear_121_61" x1="262.94" y1="-4.30943" x2="79.1877" y2="305.076" gradientUnits="userSpaceOnUse">
<stop stop-color="#174487"/>
<stop offset="0.0001" stop-color="#103670"/>
<stop offset="1" stop-color="#C8D4E2"/>
</linearGradient>
</defs>
</svg>
